<svg id="f65201b4-5586-4d59-8043-33176b09b412" data-name="6548b0d6-d472-404e-9a6c-58f6b7e534ee" xmlns="http://www.w3.org/2000/svg" viewBox="0 0 43.54 40"><title>speaker</title><path d="M6,13H0V27H6L16,40h5V0H16.3ZM16,31.8,10,24,8.5,22H5V18H8.42l1.5-1.9L16,8.43Z"/><path d="M30.9,10.1l-3.53,3.53a9,9,0,0,1,0,12.73h0l3.53,3.53A14,14,0,0,0,30.9,10.1Z"/><path d="M36.93,4.07,33.4,7.6a17.54,17.54,0,0,1,0,24.81h0l3.53,3.53A22.51,22.51,0,0,0,37,4.11l0,0Z"/><path d="M.28,32.29h0L25,1.18l3.82,3L4.1,35.32l-3.82-3Z"/></svg>