<?xml version="1.0" standalone="no"?>
<!DOCTYPE svg PUBLIC "-//W3C//DTD SVG 20010904//EN"
 "http://www.w3.org/TR/2001/REC-SVG-20010904/DTD/svg10.dtd">
<svg version="1.0" xmlns="http://www.w3.org/2000/svg"
 width="512.000000pt" height="512.000000pt" viewBox="0 0 512.000000 512.000000"
 preserveAspectRatio="xMidYMid meet">
<metadata>
Created by potrace 1.11, written by Peter Selinger 2001-2013
</metadata>
<g transform="translate(0.000000,512.000000) scale(0.100000,-0.100000)"
fill="#000000" stroke="none">
<path d="M281 4886 c-53 -30 -50 109 -51 -2318 0 -1729 3 -2263 12 -2283 27
-59 -132 -55 2323 -55 2455 0 2296 -4 2323 55 9 20 12 554 12 2281 0 2454 4
2295 -55 2322 -40 19 -4530 17 -4564 -2z m1429 -1116 l0 -150 145 0 145 0 0
-65 0 -65 -145 0 -145 0 0 -170 0 -170 -65 0 -65 0 -2 168 -3 167 -147 3 -148
3 0 64 0 65 150 0 150 0 0 150 0 150 65 0 65 0 0 -150z m2200 -2260 l0 -70
-305 0 -305 0 0 70 0 70 305 0 305 0 0 -70z"/>
</g>
</svg>
